<?xml version="1.0"?>
<svg width="639.9999999999999" height="480" xmlns="http://www.w3.org/2000/svg" xmlns:svg="http://www.w3.org/2000/svg" xmlns:xlink="http://www.w3.org/1999/xlink">
 <title>tick</title>
 <defs>
  <clipPath id="clipPath4789" clipPathUnits="userSpaceOnUse">
   <rect fill="#5c5858" y="5.032538" x="8.448541" height="95.923264" width="79.93605" id="rect4791"/>
  </clipPath>
  <clipPath id="clipPath4837" clipPathUnits="userSpaceOnUse">
   <path fill="none" fill-rule="evenodd" stroke="#000000" stroke-width="1.598721px" id="path4839" d="m47.96163,27.07034l-7.9936,15.98721l-7.99361,7.99361l0,7.9936l0,0l0,7.99361l0,7.9936l31.97442,0l7.99361,-7.9936l0,-7.99361l-7.99361,-15.98721l-15.98721,-15.98721z"/>
  </clipPath>
  <clipPath id="clipPath4544" clipPathUnits="userSpaceOnUse">
   <path fill="none" fill-rule="evenodd" stroke="#000000" stroke-width="1px" id="path4546" d="m10,25c70,0 70,0 70,0l0,55l-70,0l0,-55z"/>
  </clipPath>
  <clipPath clipPathUnits="userSpaceOnUse" id="clipPath5872">
   <path fill="none" fill-rule="evenodd" stroke="#000000" stroke-width="1px" d="m14.15144,85.0307l59.09392,-6.06091l8.5863,-42.17387l0.25253,-12.62691l-7.3236,-4.04061l-29.7995,1.01015l-14.39468,6.31346l-9.34391,15.40482l-7.07106,42.17387z" id="path5874"/>
  </clipPath>
  <symbol viewBox="0 0 217.57256 37.99163" width="61.4mm" height="10.7mm" id="svg_58" xmlns="http://www.w3.org/2000/svg">
   <defs>
    <clipPath clipPathUnits="userSpaceOnUse" id="svg_28">
     <rect fill="#5c5858" x="8.45" y="5.03" width="79.9" height="95.9" id="svg_57"/>
    </clipPath>
    <clipPath clipPathUnits="userSpaceOnUse" id="svg_22">
     <path fill="none" stroke-width="1px" stroke="#000" d="m10,25l70,0l0,55l-70,0l0,-55z" id="svg_56"/>
    </clipPath>
   </defs>
   <metadata id="svg_55">image/svg+xml</metadata>
   <g transform="translate(-94.9 -278)" id="svg_20">
    <text fill="#000000" font-family="sans-serif" x="260.17426" y="374.1441" font-size="20.5px" xml:space="preserve" id="svg_53">
     <tspan y="374.1441" x="260.17426" id="svg_54"/>
    </text>
    <text fill="#000000" font-family="sans-serif" x="140.90388" y="303.01273" font-size="20.5px" xml:space="preserve" id="svg_41">
     <tspan fill="#ffffff" font-family="&#x27;Open Sans'" x="140.90388" y="303.01273" id="svg_42">
      <g fill="#ffffff">
       <tspan font-family="&#x27;Open Sans'" dx="-1.0496" font-weight="bold" id="svg_47">
        <g fill="#ffffff">
         <tspan id="svg_51">P
          <tspan fill="#ffffff" id="svg_52">E</tspan></tspan>
         <tspan id="svg_50">T</tspan>
         <tspan id="svg_49">R</tspan>
         <tspan id="svg_48">O</tspan>
        </g>
       </tspan>
       <tspan id="svg_46">A</tspan>
       <tspan id="svg_43">
        <tspan fill="#ffffff" id="svg_45">CA</tspan>
        <tspan fill="#ffffff" id="svg_44">DE</tspan>MY</tspan>
      </g>
     </tspan>
    </text>
    <g fill="#5c5858" transform="matrix(.320 0 0 .320 114 280)" clip-path="url(#svg_28)" id="svg_27">
     <g stroke="#fff" transform="translate(3.2 -3.2)" id="svg_36">
      <g id="svg_39">
       <path fill="#5c5858" stroke-width="2" stroke-miterlimit="10" stroke="#fff" d="m74.8,65c0,13.7 -11.1,24.8 -24.8,24.8s-24.8,-11.1 -24.8,-24.8s0,-13.7 24.8,-54.8c24.8,41.1 24.8,41.1 24.8,54.8z" stroke-linejoin="round" id="svg_40"/>
      </g>
      <g id="svg_37">
       <path fill="#5c5858" stroke-width="2" stroke-miterlimit="10" stroke="#fff" d="m74.8,65c0,13.7 -11.1,24.8 -24.8,24.8s-24.8,-11.1 -24.8,-24.8s0,-13.7 24.8,-54.8c24.8,41.1 24.8,41.1 24.8,54.8z" stroke-linejoin="round" id="svg_38"/>
      </g>
     </g>
     <text font-weight="bold" x="0" y="115" stroke="#ffffff" font-family="&#x27;Helvetica Neue', Helvetica, Arial-Unicode, Arial, Sans-serif" font-size="5px" id="svg_35">Created by Linseed Studio</text>
     <text font-weight="bold" x="0" y="120" stroke="#ffffff" font-family="&#x27;Helvetica Neue', Helvetica, Arial-Unicode, Arial, Sans-serif" font-size="5px" id="svg_34">from the Noun Project</text>
     <g stroke="#fff" transform="matrix(.950 0 0 .960 5.71 -.795)" id="svg_29">
      <g id="svg_32">
       <path fill="#5c5858" stroke-width="2" stroke-miterlimit="10" stroke="#fff" d="m74.8,65c0,13.7 -11.1,24.8 -24.8,24.8s-24.8,-11.1 -24.8,-24.8s0,-13.7 24.8,-54.8c24.8,41.1 24.8,41.1 24.8,54.8z" stroke-linejoin="round" id="svg_33"/>
      </g>
      <g id="svg_30">
       <path fill="#5c5858" stroke-width="2" stroke-miterlimit="10" stroke="#fff" d="m74.8,65c0,13.7 -11.1,24.8 -24.8,24.8s-24.8,-11.1 -24.8,-24.8s0,-13.7 24.8,-54.8c24.8,41.1 24.8,41.1 24.8,54.8z" stroke-linejoin="round" id="svg_31"/>
      </g>
     </g>
    </g>
    <g transform="matrix(.172 0 0 .215 122 287)" clip-path="url(#svg_22)" id="svg_21">
     <path fill="#fff" stroke="#fff" d="m73,27.8c-2.37,0.001 -4.56,1 -6.53,2.02c-1.97,1.03 -3.74,2.29 -5.36,3.65c-3.24,2.74 -5.97,5.85 -8.46,9.08c-2.48,3.24 -4.72,6.61 -6.79,10.1c-1.01,1.69 -1.99,3.4 -2.93,5.14c-1.24,-0.912 -6.84,-7.37 -15.5,-7.63c-4.01,-0.121 -3.26,2.93 -0.882,4.04c9.56,4.48 11.1,11.4 14.1,15.8c2.71,4.03 8.4,2.17 9.94,-2.45c0.25,-0.753 0.491,-1.71 0.761,-2.58c0.279,-0.886 0.57,-1.77 0.874,-2.66c0.605,-1.77 1.25,-3.54 1.94,-5.29c1.38,-3.5 2.91,-6.93 4.66,-10.2c1.76,-3.29 3.72,-6.46 6.09,-9.24c2.36,-2.75 5.29,-5.02 8.6,-6.14c1.99,-0.676 3.1,-3.62 -0.491,-3.62l-0.022,-0.02z" id="svg_26"/>
     <text fill="#ffffff" font-weight="bold" x="0" y="115" stroke="#ffffff" font-size="5px" font-family="&#x27;Helvetica Neue', Helvetica, Arial-Unicode, Arial, Sans-serif" id="svg_25">Created by Karen Tyler</text>
     <text fill="#ffffff" font-weight="bold" x="0" y="120" stroke="#ffffff" font-size="5px" font-family="&#x27;Helvetica Neue', Helvetica, Arial-Unicode, Arial, Sans-serif" id="svg_24">from the Noun Project</text>
     <path fill="#fff" stroke="#fff" d="m73,-159c-2.37,0.001 -4.56,1 -6.53,2.02c-1.97,1.03 -3.74,2.29 -5.36,3.65c-3.24,2.74 -5.97,5.85 -8.46,9.08c-2.48,3.24 -4.72,6.61 -6.79,10.1c-1.01,1.69 -1.99,3.4 -2.93,5.14c-1.24,-0.912 -6.84,-7.37 -15.5,-7.63c-4.01,-0.121 -3.26,2.93 -0.882,4.04c9.56,4.48 11.1,11.4 14.1,15.8c2.71,4.03 8.4,2.17 9.94,-2.45c0.25,-0.753 0.491,-1.71 0.761,-2.58c0.279,-0.886 0.57,-1.77 0.874,-2.66c0.605,-1.77 1.25,-3.54 1.94,-5.29c1.38,-3.5 2.91,-6.93 4.66,-10.2c1.76,-3.29 3.72,-6.46 6.09,-9.24c2.36,-2.75 5.29,-5.02 8.6,-6.14c1.99,-0.676 3.1,-3.62 -0.491,-3.62l-0.022,-0.02z" id="svg_23"/>
    </g>
   </g>
  </symbol>
 </defs>
 <metadata id="metadata4783">image/svg+xml</metadata>
 <g>
  <title>Layer 1</title>
  <g id="layer1">
   <g id="g5852" clip-path="url(#clipPath5872)">
    <path fill="#000000" id="path5840" d="m174.801573,208.462217c-2.369,0.001 -4.565,1.003 -6.528,2.025c-1.969,1.029 -3.739,2.288 -5.358,3.652c-3.245,2.735 -5.969,5.851 -8.459,9.08c-2.483,3.238 -4.715,6.614 -6.793,10.068c-1.013,1.69 -1.987,3.403 -2.926,5.137c-1.244,-0.912 -6.843,-7.369 -15.522,-7.631c-4.006,-0.121 -3.256,2.929 -0.882,4.042c9.558,4.479 11.138,11.441 14.1,15.839c2.714,4.028 8.401,2.174 9.935,-2.448c0.25,-0.753 0.491,-1.714 0.761,-2.582c0.279,-0.886 0.57,-1.774 0.874,-2.661c0.605,-1.773 1.253,-3.538 1.94,-5.288c1.377,-3.496 2.907,-6.933 4.659,-10.23c1.755,-3.29 3.725,-6.462 6.089,-9.244c2.358,-2.747 5.288,-5.018 8.601,-6.14c1.987,-0.676 3.104,-3.621 -0.491,-3.619z"/>
    <text font-family="&#x27;Helvetica Neue', Helvetica, Arial-Unicode, Arial, Sans-serif" fill="#000000" id="text5842" font-weight="bold" font-size="5px" y="295.675217" x="101.763573">Created by Karen Tyler</text>
    <text font-family="&#x27;Helvetica Neue', Helvetica, Arial-Unicode, Arial, Sans-serif" fill="#000000" id="text5844" font-weight="bold" font-size="5px" y="300.675217" x="101.763573">from the Noun Project</text>
   </g>
  </g>
  <g id="svg_18"/>
  <use x="11.730884" y="-79.017459" transform="matrix(4.869250070697343,0,0,4.869250070697343,-274.5463668980207,-542.0391946462037) " xlink:href="#svg_58" id="svg_59"/>
  <g id="svg_60"/>
 </g>
</svg>