<?xml version="1.0" encoding="UTF-8" standalone="no"?>
<!-- Created with Inkscape (http://www.inkscape.org/) -->

<svg
   xmlns:dc="http://purl.org/dc/elements/1.1/"
   xmlns:cc="http://creativecommons.org/ns#"
   xmlns:rdf="http://www.w3.org/1999/02/22-rdf-syntax-ns#"
   xmlns:svg="http://www.w3.org/2000/svg"
   xmlns="http://www.w3.org/2000/svg"
   xmlns:sodipodi="http://sodipodi.sourceforge.net/DTD/sodipodi-0.dtd"
   xmlns:inkscape="http://www.inkscape.org/namespaces/inkscape"
   width="61.403812mm"
   height="10.722082mm"
   viewBox="0 0 217.57256 37.99163"
   id="svg3336"
   version="1.1"
   inkscape:version="0.91 r13725"
   sodipodi:docname="pa-logo-black.svg"
   inkscape:export-filename="/Users/sonnyparsonage/Documents/pp-landing/app/stylesheets/img/logo-png.png"
   inkscape:export-xdpi="318.87891"
   inkscape:export-ydpi="318.87891">
  <defs
     id="defs3338">
    <clipPath
       clipPathUnits="userSpaceOnUse"
       id="clipPath4789">
      <rect
         style="fill:#5c5858;fill-opacity:1"
         id="rect4791"
         width="79.93605"
         height="95.923264"
         x="8.4485407"
         y="5.0325379" />
    </clipPath>
    <clipPath
       clipPathUnits="userSpaceOnUse"
       id="clipPath4837">
      <path
         style="fill:none;fill-rule:evenodd;stroke:#000000;stroke-width:1.59872103px;stroke-linecap:butt;stroke-linejoin:miter;stroke-opacity:1"
         d="m 47.961631,27.070344 -7.993605,15.98721 -7.993606,7.993605 0,7.993605 0,0 0,7.993605 0,7.993605 31.974421,0 7.993605,-7.993605 0,-7.993605 -7.993605,-15.98721 -15.98721,-15.98721 z"
         id="path4839"
         inkscape:connector-curvature="0" />
    </clipPath>
    <clipPath
       clipPathUnits="userSpaceOnUse"
       id="clipPath4544">
      <path
         style="fill:none;fill-rule:evenodd;stroke:#000000;stroke-width:1px;stroke-linecap:butt;stroke-linejoin:miter;stroke-opacity:1"
         d="m 10,25 c 70,0 70,0 70,0 l 0,55 -70,0 z"
         id="path4546"
         inkscape:connector-curvature="0" />
    </clipPath>
  </defs>
  <sodipodi:namedview
     id="base"
     pagecolor="#ffffff"
     bordercolor="#666666"
     borderopacity="1.0"
     inkscape:pageopacity="0.0"
     inkscape:pageshadow="2"
     inkscape:zoom="1.4"
     inkscape:cx="-74.871362"
     inkscape:cy="70.546978"
     inkscape:document-units="px"
     inkscape:current-layer="layer1"
     showgrid="false"
     inkscape:window-width="2560"
     inkscape:window-height="1322"
     inkscape:window-x="0"
     inkscape:window-y="0"
     inkscape:window-maximized="1"
     inkscape:snap-text-baseline="true"
     inkscape:snap-grids="true"
     inkscape:snap-to-guides="false"
     fit-margin-top="0"
     fit-margin-left="0"
     fit-margin-right="0.6"
     fit-margin-bottom="0"
     units="mm">
    <inkscape:grid
       type="xygrid"
       id="grid3344"
       originx="-129.26347"
       originy="-1463.3973" />
  </sodipodi:namedview>
  <metadata
     id="metadata3341">
    <rdf:RDF>
      <cc:Work
         rdf:about="">
        <dc:format>image/svg+xml</dc:format>
        <dc:type
           rdf:resource="http://purl.org/dc/dcmitype/StillImage" />
        <dc:title></dc:title>
      </cc:Work>
    </rdf:RDF>
  </metadata>
  <g
     inkscape:label="Layer 1"
     inkscape:groupmode="layer"
     id="layer1"
     transform="translate(-94.928913,-278.32935)">
    <text
       xml:space="preserve"
       style="font-style:normal;font-weight:normal;font-size:25.60000038px;line-height:125%;font-family:sans-serif;letter-spacing:0px;word-spacing:0px;fill:#000000;fill-opacity:1;stroke:none;stroke-width:1px;stroke-linecap:butt;stroke-linejoin:miter;stroke-opacity:1"
       x="274.55478"
       y="393.34885"
       id="text4627"
       sodipodi:linespacing="125%"><tspan
         sodipodi:role="line"
         id="tspan4629"
         x="274.55478"
         y="393.34885" /></text>
    <text
       xml:space="preserve"
       style="font-style:normal;font-weight:normal;font-size:25.60000038px;line-height:125%;font-family:sans-serif;letter-spacing:0px;word-spacing:0px;fill:#000000;fill-opacity:1;stroke:none;stroke-width:1px;stroke-linecap:butt;stroke-linejoin:miter;stroke-opacity:1"
       x="125.4668"
       y="304.4346"
       id="text4689"
       sodipodi:linespacing="125%"
       inkscape:export-xdpi="90"
       inkscape:export-ydpi="90"><tspan
         sodipodi:role="line"
         id="tspan4691"
         x="125.4668"
         y="304.4346"
         style="font-style:normal;font-variant:normal;font-weight:normal;font-stretch:normal;font-family:'Open Sans';-inkscape-font-specification:'Open Sans';letter-spacing:-0.99839991px;fill:#ffffff"><tspan
           style="font-style:normal;font-variant:normal;font-weight:bold;font-stretch:normal;font-family:'Open Sans';-inkscape-font-specification:'Open Sans Bold';letter-spacing:-0.99839991px;fill:#ffffff;fill-opacity:1"
           id="tspan4693"
           dx="-1.312"><tspan
             style="letter-spacing:-1.6128px;fill:#ffffff;fill-opacity:1"
             id="tspan4695">P<tspan
   style="letter-spacing:-0.66559994px;fill:#ffffff"
   id="tspan4697">E</tspan></tspan><tspan
             style="letter-spacing:-0.66559994px;fill:#ffffff"
             id="tspan4699">T</tspan><tspan
             style="letter-spacing:-1.91359997px;fill:#ffffff"
             id="tspan4701">R</tspan><tspan
             style="letter-spacing:-0.68480003px;fill:#ffffff;fill-opacity:1"
             id="tspan4703">O</tspan></tspan><tspan
           style="letter-spacing:-1.9072001px;fill:#ffffff;fill-opacity:1"
           id="tspan4705">A</tspan><tspan
           style="letter-spacing:-1.35679984px;fill:#ffffff;fill-opacity:1"
           id="tspan4707"><tspan
   id="tspan4709"
   style="letter-spacing:-0.62080002px;fill:#ffffff">CA</tspan><tspan
   style="letter-spacing:-2.53439999px;fill:#ffffff"
   id="tspan4711">DE</tspan>MY</tspan></tspan></text>
    <g
       id="g4715"
       transform="matrix(0.40032,0,0,0.40032,91.546793,275.90635)"
       clip-path="url(#clipPath4789)"
       style="opacity:1;fill:#5c5858;fill-opacity:1;stroke:#ffffff;stroke-opacity:1"
       inkscape:export-xdpi="90"
       inkscape:export-ydpi="90">
      <g
         id="g4717"
         style="fill:#5c5858;fill-opacity:1;stroke:#ffffff;stroke-opacity:1"
         transform="translate(3.197442,-3.197442)">
        <g
           id="g4719"
           style="fill:#5c5858;fill-opacity:1;stroke:#ffffff;stroke-opacity:1">
          <path
             id="path4721"
             stroke-miterlimit="10"
             d="M 74.75,65 C 74.75,78.669 63.669,89.75 50,89.75 36.331,89.75 25.25,78.669 25.25,65 25.25,51.331 25.25,51.331 50,10.25 74.75,51.331 74.75,51.331 74.75,65 Z"
             style="fill:#5c5858;fill-opacity:1;stroke:#ffffff;stroke-width:2;stroke-linejoin:round;stroke-miterlimit:10;stroke-opacity:1"
             inkscape:connector-curvature="0" />
        </g>
        <g
           style="fill:#5c5858;fill-opacity:1;stroke:#ffffff;stroke-opacity:1"
           id="g4723">
          <path
             inkscape:connector-curvature="0"
             style="fill:#5c5858;fill-opacity:1;stroke:#ffffff;stroke-width:2;stroke-linejoin:round;stroke-miterlimit:10;stroke-opacity:1"
             d="M 74.75,65 C 74.75,78.669 63.669,89.75 50,89.75 36.331,89.75 25.25,78.669 25.25,65 25.25,51.331 25.25,51.331 50,10.25 74.75,51.331 74.75,51.331 74.75,65 Z"
             stroke-miterlimit="10"
             id="path4725" />
        </g>
      </g>
      <text
         id="text4727"
         font-weight="bold"
         font-size="5px"
         y="115"
         x="0"
         style="font-weight:bold;font-size:5px;font-family:'Helvetica Neue', Helvetica, Arial-Unicode, Arial, Sans-serif;fill:#5c5858;fill-opacity:1;stroke:#ffffff;stroke-opacity:1">Created by Linseed Studio</text>
      <text
         id="text4729"
         font-weight="bold"
         font-size="5px"
         y="120"
         x="0"
         style="font-weight:bold;font-size:5px;font-family:'Helvetica Neue', Helvetica, Arial-Unicode, Arial, Sans-serif;fill:#5c5858;fill-opacity:1;stroke:#ffffff;stroke-opacity:1">from the Noun Project</text>
      <g
         transform="matrix(0.94980186,0,0,0.96003357,5.7073489,-0.79538054)"
         style="fill:#5c5858;fill-opacity:1;stroke:#ffffff;stroke-opacity:1"
         id="g4731">
        <g
           style="fill:#5c5858;fill-opacity:1;stroke:#ffffff;stroke-opacity:1"
           id="g4733">
          <path
             inkscape:connector-curvature="0"
             style="fill:#5c5858;fill-opacity:1;stroke:#ffffff;stroke-width:2;stroke-linejoin:round;stroke-miterlimit:10;stroke-opacity:1"
             d="M 74.75,65 C 74.75,78.669 63.669,89.75 50,89.75 36.331,89.75 25.25,78.669 25.25,65 25.25,51.331 25.25,51.331 50,10.25 74.75,51.331 74.75,51.331 74.75,65 Z"
             stroke-miterlimit="10"
             id="path4735" />
        </g>
        <g
           id="g4737"
           style="fill:#5c5858;fill-opacity:1;stroke:#ffffff;stroke-opacity:1">
          <path
             id="path4739"
             stroke-miterlimit="10"
             d="M 74.75,65 C 74.75,78.669 63.669,89.75 50,89.75 36.331,89.75 25.25,78.669 25.25,65 25.25,51.331 25.25,51.331 50,10.25 74.75,51.331 74.75,51.331 74.75,65 Z"
             style="fill:#5c5858;fill-opacity:1;stroke:#ffffff;stroke-width:2;stroke-linejoin:round;stroke-miterlimit:10;stroke-opacity:1"
             inkscape:connector-curvature="0" />
        </g>
      </g>
    </g>
    <g
       style="fill:#ffffff;fill-opacity:1;stroke:#ffffff;stroke-opacity:1"
       clip-path="url(#clipPath4544)"
       transform="matrix(0.21441701,0,0,0.2688,101.38908,284.31115)"
       id="g4768"
       inkscape:export-xdpi="90"
       inkscape:export-ydpi="90">
      <path
         style="fill:#ffffff;fill-opacity:1;stroke:#ffffff;stroke-opacity:1"
         inkscape:connector-curvature="0"
         d="m 73.038,27.787 c -2.369,0.001 -4.565,1.003 -6.528,2.025 -1.969,1.029 -3.739,2.288 -5.358,3.652 -3.245,2.735 -5.969,5.851 -8.459,9.08 -2.483,3.238 -4.715,6.614 -6.793,10.068 -1.013,1.69 -1.987,3.403 -2.926,5.137 -1.244,-0.912 -6.843,-7.369 -15.522,-7.631 -4.006,-0.121 -3.256,2.929 -0.882,4.042 9.558,4.479 11.138,11.441 14.1,15.839 2.714,4.028 8.401,2.174 9.935,-2.448 0.25,-0.753 0.491,-1.714 0.761,-2.582 0.279,-0.886 0.57,-1.774 0.874,-2.661 0.605,-1.773 1.253,-3.538 1.94,-5.288 1.377,-3.496 2.907,-6.933 4.659,-10.23 1.755,-3.29 3.725,-6.462 6.089,-9.244 2.358,-2.747 5.288,-5.018 8.601,-6.14 1.987,-0.676 3.104,-3.621 -0.491,-3.619 z"
         id="path4770" />
      <text
         style="font-weight:bold;font-size:5px;font-family:'Helvetica Neue', Helvetica, Arial-Unicode, Arial, Sans-serif;fill:#ffffff;fill-opacity:1;stroke:#ffffff;stroke-opacity:1"
         x="0"
         y="115"
         font-size="5px"
         font-weight="bold"
         id="text4772">Created by Karen Tyler</text>
      <text
         style="font-weight:bold;font-size:5px;font-family:'Helvetica Neue', Helvetica, Arial-Unicode, Arial, Sans-serif;fill:#ffffff;fill-opacity:1;stroke:#ffffff;stroke-opacity:1"
         x="0"
         y="120"
         font-size="5px"
         font-weight="bold"
         id="text4774">from the Noun Project</text>
      <path
         id="path4776"
         d="m 73.038,-159.28783 c -2.369,0.001 -4.565,1.003 -6.528,2.025 -1.969,1.029 -3.739,2.288 -5.358,3.652 -3.245,2.735 -5.969,5.851 -8.459,9.08 -2.483,3.238 -4.715,6.614 -6.793,10.068 -1.013,1.69 -1.987,3.403 -2.926,5.137 -1.244,-0.912 -6.843,-7.369 -15.522,-7.631 -4.006,-0.121 -3.256,2.929 -0.882,4.042 9.558,4.479 11.138,11.441 14.1,15.839 2.714,4.028 8.401,2.174 9.935,-2.448 0.25,-0.753 0.491,-1.714 0.761,-2.582 0.279,-0.886 0.57,-1.774 0.874,-2.661 0.605,-1.773 1.253,-3.538 1.94,-5.288 1.377,-3.496 2.907,-6.933 4.659,-10.23 1.755,-3.29 3.725,-6.462 6.089,-9.244 2.358,-2.747 5.288,-5.018 8.601,-6.14 1.987,-0.676 3.104,-3.621 -0.491,-3.619 z"
         inkscape:connector-curvature="0"
         style="fill:#ffffff;fill-opacity:1;stroke:#ffffff;stroke-opacity:1" />
    </g>
  </g>
</svg>
