<?xml version="1.0" encoding="UTF-8" standalone="no"?>
<!-- Created with Inkscape (http://www.inkscape.org/) -->
<svg id="svg3336" xmlns:rdf="http://www.w3.org/1999/02/22-rdf-syntax-ns#" xmlns="http://www.w3.org/2000/svg" height="16.8mm" width="95.6mm" version="1.1" xmlns:cc="http://creativecommons.org/ns#" xmlns:dc="http://purl.org/dc/elements/1.1/" viewBox="0 0 338.76126 59.361923">
 <defs id="defs3338">
  <clipPath id="clipPath4789" clipPathUnits="userSpaceOnUse">
   <rect id="rect4791" height="95.9" width="79.9" y="5.03" x="8.45" fill="#5c5858"/>
  </clipPath>
  <clipPath id="clipPath4544" clipPathUnits="userSpaceOnUse">
   <path id="path4546" d="m10 25h70v55h-70z" stroke="#000" stroke-width="1px" fill="none"/>
  </clipPath>
 </defs>
 <metadata id="metadata3341">
  <rdf:RDF>
   <cc:Work rdf:about="">
    <dc:format>image/svg+xml</dc:format>
    <dc:type rdf:resource="http://purl.org/dc/dcmitype/StillImage"/>
    <dc:title/>
   </cc:Work>
  </rdf:RDF>
 </metadata>
 <g id="layer1" transform="translate(-34.3 -268)">
  <text id="text4627" style="word-spacing:0px;letter-spacing:0px" xml:space="preserve" font-size="40px" y="447.36218" x="315" font-family="sans-serif" line-height="125%" fill="#000000"><tspan id="tspan4629" x="315" y="447.36218"/></text>
  <text id="text4689" style="word-spacing:0px;letter-spacing:0px" xml:space="preserve" font-size="40px" y="308.43362" x="82.050003" font-family="sans-serif" line-height="125%" fill="#000000"><tspan id="tspan4691" style="letter-spacing:-1.56px" y="308.43362" x="82.050003" font-family="&apos;Open Sans&apos;" fill="#ffffff"><g fill="#ffffff"><tspan id="tspan4693" style="letter-spacing:-1.56px" font-weight="bold" dx="-2.05" font-family="&apos;Open Sans&apos;"><g fill="#ffffff"><tspan id="tspan4695" style="letter-spacing:-2.52px">P<tspan id="tspan4697" style="letter-spacing:-1.04px" fill="#ffffff">E</tspan></tspan><tspan id="tspan4699" style="letter-spacing:-1.04px">T</tspan><tspan id="tspan4701" style="letter-spacing:-2.99px">R</tspan><tspan id="tspan4703" style="letter-spacing:-1.07px">O</tspan></g></tspan><tspan id="tspan4705" style="letter-spacing:-2.98px">A</tspan><tspan id="tspan4707" style="letter-spacing:-2.12px"><tspan id="tspan4709" style="letter-spacing:-.970px" fill="#ffffff">CA</tspan><tspan id="tspan4711" style="letter-spacing:-3.96px" fill="#ffffff">DE</tspan>MY</tspan></g></tspan></text>
  <g id="g4715" clip-path="url(#clipPath4789)" transform="matrix(.626 0 0 .626 29 264)" fill="#5c5858">
   <g id="g4717" transform="translate(3.2 -3.2)" stroke="#fff">
    <g id="g4719">
     <path id="path4721" stroke-linejoin="round" d="m74.8 65c0 13.7-11.1 24.8-24.8 24.8s-24.8-11.1-24.8-24.8 0-13.7 24.8-54.8c24.8 41.1 24.8 41.1 24.8 54.8z" stroke="#fff" stroke-miterlimit="10" stroke-width="2" fill="#5c5858"/>
    </g>
    <g id="g4723">
     <path id="path4725" stroke-linejoin="round" d="m74.8 65c0 13.7-11.1 24.8-24.8 24.8s-24.8-11.1-24.8-24.8 0-13.7 24.8-54.8c24.8 41.1 24.8 41.1 24.8 54.8z" stroke="#fff" stroke-miterlimit="10" stroke-width="2" fill="#5c5858"/>
    </g>
   </g>
   <text id="text4727" font-size="5px" font-family="&apos;Helvetica Neue&apos;, Helvetica, Arial-Unicode, Arial, Sans-serif" stroke="#ffffff" y="115" x="0" font-weight="bold">Created by Linseed Studio</text>
   <text id="text4729" font-size="5px" font-family="&apos;Helvetica Neue&apos;, Helvetica, Arial-Unicode, Arial, Sans-serif" stroke="#ffffff" y="120" x="0" font-weight="bold">from the Noun Project</text>
   <g id="g4731" transform="matrix(.950 0 0 .960 5.71 -.795)" stroke="#fff">
    <g id="g4733">
     <path id="path4735" stroke-linejoin="round" d="m74.8 65c0 13.7-11.1 24.8-24.8 24.8s-24.8-11.1-24.8-24.8 0-13.7 24.8-54.8c24.8 41.1 24.8 41.1 24.8 54.8z" stroke="#fff" stroke-miterlimit="10" stroke-width="2" fill="#5c5858"/>
    </g>
    <g id="g4737">
     <path id="path4739" stroke-linejoin="round" d="m74.8 65c0 13.7-11.1 24.8-24.8 24.8s-24.8-11.1-24.8-24.8 0-13.7 24.8-54.8c24.8 41.1 24.8 41.1 24.8 54.8z" stroke="#fff" stroke-miterlimit="10" stroke-width="2" fill="#5c5858"/>
    </g>
   </g>
  </g>
  <g id="g4768" clip-path="url(#clipPath4544)" transform="matrix(.335 0 0 .42 44.4 277)">
   <path id="path4770" d="m73 27.8c-2.37 0.001-4.56 1-6.53 2.02-1.97 1.03-3.74 2.29-5.36 3.65-3.24 2.74-5.97 5.85-8.46 9.08-2.48 3.24-4.72 6.61-6.79 10.1-1.01 1.69-1.99 3.4-2.93 5.14-1.24-0.912-6.84-7.37-15.5-7.63-4.01-0.121-3.26 2.93-0.882 4.04 9.56 4.48 11.1 11.4 14.1 15.8 2.71 4.03 8.4 2.17 9.94-2.45 0.25-0.753 0.491-1.71 0.761-2.58 0.279-0.886 0.57-1.77 0.874-2.66 0.605-1.77 1.25-3.54 1.94-5.29 1.38-3.5 2.91-6.93 4.66-10.2 1.76-3.29 3.72-6.46 6.09-9.24 2.36-2.75 5.29-5.02 8.6-6.14 1.99-0.676 3.1-3.62-0.491-3.62z" stroke="#fff" fill="#fff"/>
   <text id="text4772" font-family="&apos;Helvetica Neue&apos;, Helvetica, Arial-Unicode, Arial, Sans-serif" font-size="5px" stroke="#ffffff" y="115" x="0" font-weight="bold" fill="#ffffff">Created by Karen Tyler</text>
   <text id="text4774" font-family="&apos;Helvetica Neue&apos;, Helvetica, Arial-Unicode, Arial, Sans-serif" font-size="5px" stroke="#ffffff" y="120" x="0" font-weight="bold" fill="#ffffff">from the Noun Project</text>
   <path id="path4776" d="m73-159c-2.37 0.001-4.56 1-6.53 2.02-1.97 1.03-3.74 2.29-5.36 3.65-3.24 2.74-5.97 5.85-8.46 9.08-2.48 3.24-4.72 6.61-6.79 10.1-1.01 1.69-1.99 3.4-2.93 5.14-1.24-0.912-6.84-7.37-15.5-7.63-4.01-0.121-3.26 2.93-0.882 4.04 9.56 4.48 11.1 11.4 14.1 15.8 2.71 4.03 8.4 2.17 9.94-2.45 0.25-0.753 0.491-1.71 0.761-2.58 0.279-0.886 0.57-1.77 0.874-2.66 0.605-1.77 1.25-3.54 1.94-5.29 1.38-3.5 2.91-6.93 4.66-10.2 1.76-3.29 3.72-6.46 6.09-9.24 2.36-2.75 5.29-5.02 8.6-6.14 1.99-0.676 3.1-3.62-0.491-3.62z" stroke="#fff" fill="#fff"/>
  </g>
 </g>
</svg>
